<?xml version="1.0" standalone="no"?>
<!DOCTYPE svg PUBLIC "-//W3C//DTD SVG 20010904//EN"
 "http://www.w3.org/TR/2001/REC-SVG-20010904/DTD/svg10.dtd">
<svg version="1.0" xmlns="http://www.w3.org/2000/svg"
 width="512.000000pt" height="512.000000pt" viewBox="0 0 512.000000 512.000000"
 preserveAspectRatio="xMidYMid meet">
<metadata>
Created by potrace 1.14, written by Peter Selinger 2001-2017
</metadata>
<g transform="translate(0.000000,512.000000) scale(0.100000,-0.100000)"
fill="#000000" stroke="none">
<path d="M3440 3977 c-26 -13 -50 -70 -84 -198 -9 -35 -25 -95 -36 -134 -11
-38 -22 -77 -24 -85 -2 -8 -36 -130 -75 -270 -39 -140 -71 -266 -71 -280 0
-34 32 -63 70 -63 59 0 46 -33 210 552 60 217 110 407 110 422 0 18 -9 35 -26
48 -31 24 -40 25 -74 8z"/>
<path d="M1572 3889 c-115 -25 -149 -37 -239 -81 -94 -46 -167 -109 -213 -186
l-33 -54 6 -111 c3 -62 10 -125 16 -141 10 -25 8 -33 -13 -60 -66 -87 -46
-210 45 -276 22 -16 44 -30 49 -32 4 -2 10 -17 13 -34 13 -87 72 -192 145
-261 25 -24 49 -43 54 -43 21 0 -6 -139 -36 -185 l-16 -24 -47 42 c-26 23 -54
49 -64 58 -13 13 -32 16 -79 14 -203 -10 -409 -130 -507 -294 -56 -94 -98
-250 -118 -441 -3 -30 -8 -71 -10 -90 -2 -19 -7 -118 -11 -220 -4 -102 -8
-187 -10 -189 -2 -2 -49 -4 -103 -3 -86 1 -103 -2 -125 -19 -33 -26 -35 -77
-5 -105 21 -19 73 -19 2289 -19 2216 0 2268 0 2289 19 30 27 28 79 -4 104 -22
18 -42 20 -212 20 -104 0 -201 1 -217 1 l-28 1 26 35 c46 60 73 163 44 166 -7
1 -38 0 -69 -1 -37 -1 -60 3 -65 11 -4 7 -8 267 -8 578 -1 616 1 595 -59 631
-31 19 -58 20 -912 20 -854 0 -881 -1 -912 -20 -54 -32 -58 -49 -63 -243 0
-16 -3 -16 -27 -3 -51 26 -167 56 -237 60 l-69 5 -61 -55 c-34 -29 -64 -54
-67 -54 -10 0 -39 77 -49 128 l-8 44 74 72 c76 76 138 181 150 258 5 28 13 39
34 48 56 23 110 119 110 196 0 48 -27 103 -57 117 -29 13 -27 27 18 129 16 36
29 82 29 100 0 58 -46 135 -116 192 -41 33 -72 69 -89 102 -29 57 -73 87 -145
100 -79 13 -209 10 -288 -7z"/>
<path d="M2783 3667 c-142 -109 -213 -169 -216 -184 -4 -24 17 -74 36 -85 7
-3 98 -72 202 -152 202 -155 225 -166 265 -124 21 23 26 58 11 87 -6 10 -80
70 -165 135 -86 65 -156 119 -156 121 0 1 74 60 165 129 157 120 165 129 165
161 0 41 -32 75 -69 75 -18 0 -92 -50 -238 -163z"/>
<path d="M3628 3816 c-26 -19 -37 -57 -25 -84 6 -13 82 -78 170 -144 l160
-122 -25 -20 c-14 -12 -86 -67 -160 -124 -75 -57 -140 -113 -146 -126 -17 -37
9 -83 52 -91 28 -6 42 -2 75 22 71 51 315 237 341 261 14 12 28 22 31 22 4 0
12 13 17 29 19 53 17 55 -294 291 -132 101 -160 113 -196 86z"/>
</g>
</svg>
